<svg width="680" height="300" viewBox="0 0 680 300" fill="none" xmlns="http://www.w3.org/2000/svg" role="img">
<defs><radialGradient id="orb" cx="50%" cy="50%" r="50%"><stop offset="0%" stop-color="#c084fc" stop-opacity=".75"/><stop offset="55%" stop-color="#a855f7" stop-opacity=".28"/><stop offset="100%" stop-color="#a855f7" stop-opacity=".05"/></radialGradient><linearGradient id="line" x1="0" y1="0" x2="680" y2="300"><stop stop-color="#a855f7"/><stop offset=".55" stop-color="#c084fc"/><stop offset="1" stop-color="#22d3ee"/></linearGradient></defs>
<rect x="1" y="1" width="678" height="298" rx="18" fill="#0d1117" stroke="url(#line)" stroke-width="2"/><circle cx="612" cy="58" r="53" fill="url(#orb)"/><circle cx="612" cy="58" r="23" fill="#a855f7" opacity=".28"/>
<text x="38" y="48" fill="#f8fafc" font-size="24" font-weight="800" font-family="Segoe UI,Inter,Arial">Hack The Box Stats</text><text x="38" y="76" fill="#94a3b8" font-size="12" font-family="Segoe UI,Inter,Arial">https://app.hackthebox.com/public/users/1132645</text>
<text x="38" y="112" fill="#9fef00" font-size="26" font-weight="900" font-family="Segoe UI,Inter,Arial">ZLCube</text><text x="38" y="138" fill="#f8fafc" font-size="14" font-family="Segoe UI,Inter,Arial">Rank: <tspan fill="#c084fc" font-weight="700">Hacker</tspan></text>
<g><rect x="38" y="154" width="130" height="52" rx="10" fill="#181f2b" stroke="#ffffff18"/><text x="52" y="175" fill="#94a3b8" font-size="11" font-family="Segoe UI,Inter,Arial">Respect</text><text x="52" y="196" fill="#f8fafc" font-size="18" font-weight="700" font-family="Segoe UI,Inter,Arial">N/A</text></g><g><rect x="196" y="154" width="130" height="52" rx="10" fill="#181f2b" stroke="#ffffff18"/><text x="210" y="175" fill="#94a3b8" font-size="11" font-family="Segoe UI,Inter,Arial">Points</text><text x="210" y="196" fill="#f8fafc" font-size="18" font-weight="700" font-family="Segoe UI,Inter,Arial">N/A</text></g><g><rect x="354" y="154" width="130" height="52" rx="10" fill="#181f2b" stroke="#ffffff18"/><text x="368" y="175" fill="#94a3b8" font-size="11" font-family="Segoe UI,Inter,Arial">User owns</text><text x="368" y="196" fill="#f8fafc" font-size="18" font-weight="700" font-family="Segoe UI,Inter,Arial">N/A</text></g><g><rect x="512" y="154" width="130" height="52" rx="10" fill="#181f2b" stroke="#ffffff18"/><text x="526" y="175" fill="#94a3b8" font-size="11" font-family="Segoe UI,Inter,Arial">System owns</text><text x="526" y="196" fill="#f8fafc" font-size="18" font-weight="700" font-family="Segoe UI,Inter,Arial">N/A</text></g><g><rect x="38" y="222" width="130" height="52" rx="10" fill="#181f2b" stroke="#ffffff18"/><text x="52" y="243" fill="#94a3b8" font-size="11" font-family="Segoe UI,Inter,Arial">Challenges</text><text x="52" y="264" fill="#f8fafc" font-size="18" font-weight="700" font-family="Segoe UI,Inter,Arial">N/A</text></g><g><rect x="196" y="222" width="130" height="52" rx="10" fill="#181f2b" stroke="#ffffff18"/><text x="210" y="243" fill="#94a3b8" font-size="11" font-family="Segoe UI,Inter,Arial">User bloods</text><text x="210" y="264" fill="#f8fafc" font-size="18" font-weight="700" font-family="Segoe UI,Inter,Arial">N/A</text></g><g><rect x="354" y="222" width="130" height="52" rx="10" fill="#181f2b" stroke="#ffffff18"/><text x="368" y="243" fill="#94a3b8" font-size="11" font-family="Segoe UI,Inter,Arial">System bloods</text><text x="368" y="264" fill="#f8fafc" font-size="18" font-weight="700" font-family="Segoe UI,Inter,Arial">N/A</text></g><text x="38" y="282" fill="#94a3b8" opacity=".65" font-size="11" font-family="Segoe UI,Inter,Arial">Updated: 2026-06-26 20:30 UTC</text></svg>